<svg xmlns="http://www.w3.org/2000/svg" xmlns:xlink="http://www.w3.org/1999/xlink" version="1.1" id="Layer_1" x="0px" y="0px" viewBox="0 0 283.5 84" xml:space="preserve" fill="#164586">
<g>
	<path class="st0" d="M35.6,75c-9.4,0.2-16.8,1.1-21.4-6.4c-2-3.9-1.5-8.1-4.8-6.8c1.1-1.2,2.1-1.5,3.1-0.9   c-1.8-4-3.1-10.2,1.5-15.2c-2,5.9,0.5,4.4,2,10.5c0-5.2-5-6.9,2.5-17c-3,4.8,0.5,4.9-0.7,12.4c2.4-6.4-3-11.4,5.7-18.1   c-1.6,3.1-0.9,8.3-2.1,12.1c3-7.4-1.1-10.6,8.4-17.8c-3.2,4.4-0.6,6-3.6,11c5.1-6.1,0-10.7,9.4-15.8c-4.4,4.9-1.3,6.6-4,10.4   c4.4-3.8-0.9-9.3,10.7-15.6c-3.8,3.5-2.6,5.6-4.6,8.9c3.3-5.8,8-8.5,5.4-12.2c1.5,1,2.9,3.7,1.2,6c3.1-1.1,8.4-11.4,3.1-11.7   c0.1,0,0.9,0.2,1.1,0.7c0.2,0.5,0.2,1,0.1,1.1c-0.2,0.4-0.5,0.7-0.9,0.8c-1.4,0.3-2-0.9-1.5-2c0.2-0.4,0.5-0.7,0.9-0.9   c0.2-0.1,0.5-0.2,0.7-0.2c2,0,2.8,2,2.8,4.3c0,3.7-3,9.2-7.8,12.1c3.9-1.8,5.9-4.3,7.2-7.1c-0.8,9.9-11.8,9.3-16.2,16.1   c4.3-5.2,14.3-6.5,14.8-11.3c0.4,5.8-5.9,9.9-10.5,11.3c-4.5,1.5-8.2,3.4-11.3,6.9l-1.5,1.6c3.9-3.3,6.6-5.8,11.9-7   c3.7-0.9,6-1.6,7.9-4.9c-0.3,1.5-0.3,2.9-1.1,4.2c-4.9,8.1-18,4.8-23.9,16.8c1.9-2.4,3.2-4.3,5.7-6c4.2-2.9,10.4-3,14.4-6   c-1.9,5.4-7.4,8.4-12.7,10c-4.6,1.6-6.9,1.7-8.3,7.6c3-8.4,9.1-3.7,13.6-8.9c-4,10.6-13,3.7-13.1,15.7c1.5-9.6,7.3-6.5,9.3-9.9   c0.6,4.6-2.5,6.6-5.5,8.2c-4.8,3.9-1.7,8.6,1.3,9.7c-0.7-1.9-1.1-3.8,0.2-5.5c1.5-2,4.2-2.2,6.5-2.1c2.5,0.1,4.5,0.5,7-0.7   c2-1,3-2.4,3.5-4.8c0.7-3.8-3.4-6.2-5.1-4c1,0.2,1.6,2.6-0.3,2.7c-1.1,0.1-1.7-0.9-1.5-2c0.5-1.9,2.7-2.5,4-2.3   c1.5,0.2,3.1,0.9,3.9,2.3c1.2,2.2,1,4.6-0.3,6.8c-1.9,3.3-6.6,3.5-10.2,2.9C21.2,63,24.9,75,35.6,75L35.6,75z"/>
	<path class="st1" d="M133.9,34.1l-0.9,0.8c3,1.5,4.7-0.3,5.8-2.8l4.9-11.9H142l-4.4,11.3l-4.9-11.3h-1.5l5.5,12.7   C136.3,33.7,135.7,34.6,133.9,34.1L133.9,34.1z"/>
	<path class="st1" d="M64.9,35.5c2.9,0,8.4,0.9,9.7-2.8c0.9-2.5-0.6-5.1-2.7-5.9c-2.1-0.8-5.1-0.4-5.6-0.4v-4.7l7.1,0v-1.5l-8.6,0   L64.9,35.5L64.9,35.5z M66.4,33.9v-6.2c2.5,0,7-0.8,7,3.1C73.4,34.8,69,33.8,66.4,33.9L66.4,33.9z"/>
	<polygon class="st1" points="77.9,35.5 87,35.5 87,34 79.5,34 79.5,30.2 86.3,30.2 86.3,28.8 79.5,28.8 79.5,21.8 87,21.7 87,20.2    77.9,20.2 77.9,35.5  "/>
	<path class="st1" d="M89,35.5h1.5c1.6-4.1,3.4-8.1,4.6-12.3c0-0.1,0.1-0.2,0.1-0.2c0,0.5,0.4,1.4,0.6,1.8c1.4,3.6,2.8,7.1,4.1,10.7   h1.6l-6.2-15.3h-0.3L89,35.5L89,35.5z"/>
	<path class="st1" d="M129.2,23.6c-1.4-3.9-5.7-3.4-9-3.4v15.2h1.5v-4c1.1,0,2.5,0,3.3-0.1C128.5,30.7,130.5,27.1,129.2,23.6   L129.2,23.6z M121.8,30v-8.4c3,0,6.2,0.2,6.2,4.2C128,29.8,124.8,30,121.8,30L121.8,30z"/>
	<path class="st1" d="M151.8,35.5c0.9,0,1.7-0.1,2.4-0.4c0.7-0.2,1.4-0.6,2-1.1c0.6-0.5,1.1-1,1.5-1.7l-1.2-0.9   c-0.4,0.5-0.8,1-1.2,1.3c-0.5,0.4-1,0.7-1.6,0.9c-0.6,0.2-1.2,0.3-2,0.3c-0.9,0-1.6-0.2-2.4-0.5c-0.7-0.3-1.3-0.7-1.9-1.3   c-0.5-0.6-0.9-1.2-1.2-2c-0.3-0.8-0.4-1.6-0.4-2.5s0.2-1.7,0.4-2.5c0.3-0.7,0.7-1.4,1.2-2c0.5-0.6,1.2-1,1.9-1.3   c0.7-0.3,1.5-0.5,2.4-0.5c0.7,0,1.3,0.1,1.9,0.3c0.6,0.2,1.1,0.5,1.5,0.8c0.4,0.3,0.8,0.8,1.1,1.2l1.2-0.9c-0.6-1-1.4-1.7-2.4-2.2   c-1-0.5-2.1-0.7-3.4-0.7c-0.8,0-1.6,0.1-2.4,0.4c-0.7,0.2-1.4,0.6-2.1,1c-0.6,0.4-1.2,1-1.6,1.6c-0.5,0.6-0.8,1.3-1.1,2.1   c-0.2,0.8-0.4,1.6-0.4,2.5s0.1,1.7,0.4,2.5c0.2,0.8,0.6,1.5,1.1,2.1c0.5,0.6,1,1.2,1.6,1.6c0.6,0.4,1.3,0.8,2.1,1   C150.2,35.3,151,35.5,151.8,35.5L151.8,35.5z"/>
	<polygon class="st1" points="177.5,28.9 177.5,20.2 176,20.2 176,35.5 177.5,35.5 177.5,31 179.3,28.8 184.2,35.5 186.1,35.5    180.2,27.6 185.5,20.2 183.8,20.2 177.5,28.9  "/>
	<path class="st0" d="M207.3,20.1h4.3C210.9,22.1,208.4,22.2,207.3,20.1L207.3,20.1z"/>
	<path class="st1" d="M109.8,35.5c0.8,0,1.6-0.1,2.4-0.4c0.7-0.2,1.4-0.6,2-1c0.6-0.4,1.2-1,1.6-1.6c0.5-0.6,0.8-1.3,1.1-2.1   c0.3-0.8,0.4-1.6,0.4-2.5c0-0.9-0.1-1.7-0.4-2.5c-0.2-0.8-0.6-1.5-1.1-2.1c-0.5-0.6-1-1.2-1.6-1.6c-0.6-0.5-1.3-0.8-2-1   c-0.7-0.2-1.5-0.4-2.4-0.4c-0.8,0-1.6,0.1-2.3,0.4c-0.7,0.2-1.4,0.6-2,1c-0.6,0.4-1.2,1-1.6,1.6c-0.5,0.6-0.8,1.3-1.1,2.1   c-0.3,0.8-0.4,1.6-0.4,2.5c0,0.9,0.1,1.7,0.4,2.5c0.2,0.8,0.6,1.5,1.1,2.1c0.5,0.6,1,1.2,1.6,1.6c0.6,0.5,1.3,0.8,2,1   C108.2,35.4,108.9,35.5,109.8,35.5L109.8,35.5z M109.8,34.1c-0.8,0-1.6-0.2-2.3-0.5c-0.7-0.3-1.3-0.7-1.8-1.3   c-0.5-0.6-0.9-1.2-1.2-2c-0.3-0.8-0.4-1.6-0.4-2.5c0-0.9,0.1-1.7,0.4-2.5c0.3-0.8,0.7-1.4,1.2-2c0.5-0.6,1.1-1,1.8-1.3   c0.7-0.3,1.5-0.5,2.3-0.5c0.9,0,1.6,0.2,2.3,0.5c0.7,0.3,1.3,0.7,1.9,1.3c0.5,0.6,0.9,1.2,1.2,2c0.3,0.8,0.4,1.6,0.4,2.5   c0,0.9-0.1,1.7-0.4,2.5c-0.3,0.8-0.7,1.4-1.2,2c-0.5,0.6-1.1,1-1.9,1.3C111.4,33.9,110.6,34.1,109.8,34.1L109.8,34.1z"/>
	<path class="st1" d="M189.2,35.5h-0.3V20.2h1.4v10.2c0,0.2,0,0.3,0,0.5c0,0.2,0,0.4,0,0.6c0,0.2,0,0.3,0,0.4c0,0.1,0,0.2,0,0.2   c0,0,0-0.1,0.1-0.1c0.1-0.1,0.1-0.2,0.2-0.4c0.1-0.1,0.2-0.3,0.3-0.5c0.1-0.2,0.2-0.3,0.3-0.4l8.6-10.5h0.3v15.3h-1.4V25.2   c0-0.2,0-0.3,0-0.5c0-0.2,0-0.4,0-0.6c0-0.2,0-0.3,0-0.4c0-0.1,0-0.2,0-0.2c0,0,0,0.1-0.1,0.1c-0.1,0.1-0.1,0.2-0.2,0.4   c-0.1,0.1-0.2,0.3-0.3,0.5c-0.1,0.2-0.2,0.3-0.3,0.4L189.2,35.5L189.2,35.5z"/>
	<path class="st1" d="M167.2,35.5c0.9,0,1.7-0.1,2.4-0.4c0.7-0.2,1.4-0.6,2-1.1c0.6-0.5,1.1-1,1.6-1.7l-1.2-0.9   c-0.4,0.5-0.8,1-1.2,1.3c-0.5,0.4-1,0.7-1.6,0.9c-0.6,0.2-1.3,0.3-2,0.3c-0.9,0-1.7-0.2-2.4-0.5c-0.7-0.3-1.3-0.7-1.9-1.3   c-0.5-0.6-0.9-1.2-1.2-2c-0.3-0.8-0.4-1.6-0.4-2.5c0-0.9,0.2-1.7,0.4-2.5c0.3-0.8,0.7-1.4,1.2-2c0.5-0.6,1.2-1,1.9-1.3   c0.7-0.3,1.5-0.5,2.4-0.5c0.7,0,1.3,0.1,1.9,0.3c0.6,0.2,1.1,0.5,1.6,0.8c0.4,0.3,0.8,0.8,1.2,1.2l1.2-0.9c-0.6-1-1.4-1.7-2.4-2.2   c-1-0.5-2.1-0.7-3.4-0.7c-0.8,0-1.6,0.1-2.4,0.4c-0.8,0.2-1.4,0.6-2.1,1c-0.6,0.4-1.2,1-1.6,1.6c-0.5,0.6-0.8,1.3-1.1,2.1   c-0.3,0.8-0.4,1.6-0.4,2.5c0,0.9,0.1,1.7,0.4,2.5c0.2,0.8,0.6,1.5,1.1,2.1c0.5,0.6,1,1.2,1.6,1.6c0.6,0.4,1.3,0.8,2.1,1   C165.6,35.4,166.4,35.5,167.2,35.5L167.2,35.5z"/>
	<path class="st1" d="M204.3,35.5h-0.3V20.2h1.4v10.2c0,0.2,0,0.3,0,0.5c0,0.2,0,0.4,0,0.6c0,0.2,0,0.3,0,0.4c0,0.1,0,0.2,0,0.2   c0,0,0-0.1,0.1-0.1c0.1-0.1,0.1-0.2,0.2-0.4c0.1-0.1,0.2-0.3,0.3-0.5c0.1-0.2,0.2-0.3,0.3-0.4l8.6-10.6h0.3v15.4h-1.4V25.2   c0-0.2,0-0.3,0-0.5c0-0.2,0-0.4,0-0.6c0-0.2,0-0.3,0-0.4c0-0.1,0-0.2,0-0.2c0,0,0,0.1-0.1,0.1c-0.1,0.1-0.1,0.2-0.2,0.4   c-0.1,0.1-0.2,0.3-0.3,0.5c-0.1,0.2-0.2,0.3-0.3,0.4L204.3,35.5L204.3,35.5z"/>
	<path class="st1" d="M67.6,71.7l-0.9,0.8c2.9,1.4,4.6-0.3,5.7-2.7l4.8-11.3h-1.6l-4.4,10.7l-4.8-10.7h-1.5l5.4,12.1   C69.9,71.3,69.4,72.1,67.6,71.7L67.6,71.7z"/>
	<polygon class="st1" points="80,73 81.5,73 81.5,68.1 89.3,68.1 89.3,73 90.9,73 90.9,58.5 89.3,58.5 89.3,66.7 81.5,66.7    81.5,58.5 80,58.5 80,73  "/>
	<path class="st1" d="M110,73h5.5c0.8,0,1.5-0.1,2-0.3c0.6-0.2,1.1-0.5,1.4-0.9c0.4-0.4,0.7-0.8,0.9-1.4c0.2-0.5,0.3-1.1,0.3-1.7   c0-0.6-0.1-1.2-0.4-1.7c-0.2-0.5-0.6-1-1-1.3c-0.4-0.3-1-0.6-1.6-0.8c0.6-0.2,1.1-0.6,1.4-1.1c0.3-0.5,0.5-1.1,0.5-1.8   c0-0.5-0.1-1-0.2-1.4c-0.2-0.4-0.4-0.8-0.7-1.1c-0.3-0.3-0.7-0.6-1.2-0.8c-0.5-0.2-1.1-0.3-1.8-0.3H110V73L110,73z M111.5,64.4   v-4.6h3.3c0.6,0,1.1,0.1,1.5,0.3c0.4,0.2,0.6,0.5,0.8,0.8c0.2,0.3,0.3,0.7,0.3,1.2c0,0.4-0.1,0.8-0.2,1.2c-0.2,0.3-0.4,0.6-0.8,0.8   c-0.3,0.2-0.8,0.3-1.4,0.3H111.5L111.5,64.4z M111.5,71.6v-5.9h3.7c0.7,0,1.4,0.1,1.8,0.4c0.5,0.3,0.8,0.6,1.1,1   c0.2,0.4,0.3,1,0.3,1.5c0,0.6-0.1,1.1-0.3,1.5c-0.2,0.4-0.6,0.8-1,1c-0.5,0.3-1.1,0.4-1.8,0.4H111.5L111.5,71.6z"/>
	<polygon class="st1" points="122.9,73 132.1,73 132.1,71.6 124.5,71.6 124.5,68 131,68 131,66.7 124.5,66.7 124.5,59.8 131.8,59.8    131.8,58.5 122.9,58.5 122.9,73  "/>
	<path class="st1" d="M135.3,73h1.5v-3.6h1.8c1,0,1.9-0.1,2.6-0.4c0.7-0.3,1.4-0.6,1.9-1.1c0.5-0.5,0.9-1.1,1.1-1.7   c0.2-0.7,0.4-1.4,0.4-2.2c0-0.8-0.1-1.6-0.4-2.2c-0.2-0.7-0.6-1.3-1.1-1.7c-0.5-0.5-1.1-0.9-1.9-1.1c-0.7-0.3-1.6-0.4-2.6-0.4h-3.3   V73L135.3,73z M136.8,68v-8.2h1.7c0.8,0,1.5,0.1,2.1,0.3c0.6,0.2,1,0.5,1.4,0.9c0.4,0.4,0.6,0.8,0.8,1.3c0.2,0.5,0.2,1.1,0.2,1.7   s-0.1,1.2-0.2,1.7c-0.2,0.5-0.4,0.9-0.8,1.3c-0.4,0.4-0.8,0.7-1.4,0.8c-0.6,0.2-1.3,0.3-2.1,0.3H136.8L136.8,68z"/>
	<path class="st1" d="M154.3,73.1c0.9,0,1.7-0.1,2.4-0.3c0.7-0.2,1.4-0.6,2-1c0.6-0.4,1.1-1,1.5-1.6l-1.2-0.8   c-0.3,0.5-0.8,0.9-1.2,1.3c-0.5,0.4-1,0.6-1.6,0.8c-0.6,0.2-1.2,0.3-2,0.3c-0.9,0-1.6-0.2-2.4-0.5c-0.7-0.3-1.3-0.7-1.9-1.2   c-0.5-0.5-0.9-1.2-1.2-1.9c-0.3-0.7-0.4-1.5-0.4-2.4c0-0.9,0.2-1.6,0.4-2.4c0.3-0.7,0.7-1.4,1.2-1.9c0.5-0.5,1.1-0.9,1.9-1.2   c0.7-0.3,1.5-0.5,2.4-0.5c0.7,0,1.3,0.1,1.9,0.3c0.6,0.2,1.1,0.4,1.5,0.8c0.4,0.3,0.8,0.7,1.1,1.2l1.2-0.8   c-0.6-0.9-1.4-1.6-2.4-2.1c-1-0.5-2.1-0.7-3.4-0.7c-0.8,0-1.6,0.1-2.4,0.3c-0.7,0.2-1.4,0.6-2.1,1c-0.6,0.4-1.2,0.9-1.6,1.5   c-0.5,0.6-0.8,1.3-1.1,2c-0.2,0.7-0.4,1.5-0.4,2.4c0,0.9,0.1,1.7,0.4,2.4c0.2,0.7,0.6,1.4,1.1,2c0.5,0.6,1,1.1,1.6,1.5   c0.6,0.4,1.3,0.8,2.1,1C152.7,72.9,153.5,73.1,154.3,73.1L154.3,73.1z"/>
	<polygon class="st1" points="205.6,73 207.2,73 207.2,59.8 211.6,59.8 211.6,58.5 201.2,58.5 201.2,59.8 205.6,59.8 205.6,73  "/>
	<polygon class="st1" points="181.5,73 183,73 183,59.8 187.4,59.8 187.4,58.5 177.1,58.5 177.1,59.8 181.5,59.8 181.5,73  "/>
	<path class="st1" d="M105.8,58.5h0.3V73h-1.4v-9.8c0-0.2,0-0.3,0-0.5c0-0.2,0-0.4,0-0.5c0-0.2,0-0.3,0-0.4c0-0.1,0-0.2,0-0.2   c0,0,0,0-0.1,0.1c-0.1,0.1-0.2,0.2-0.3,0.3c-0.1,0.1-0.2,0.3-0.3,0.4c-0.1,0.2-0.2,0.3-0.3,0.4L95,73h-0.3V58.5h1.5v9.8   c0,0.2,0,0.3,0,0.5c0,0.2,0,0.4,0,0.5c0,0.2,0,0.3,0,0.4c0,0.1,0,0.2,0,0.2c0,0,0,0,0.1-0.1c0.1-0.1,0.2-0.2,0.3-0.3   c0.1-0.1,0.2-0.3,0.3-0.4c0.1-0.2,0.2-0.3,0.3-0.4L105.8,58.5L105.8,58.5z"/>
	<polygon class="st1" points="190.1,73 199.3,73 199.3,71.7 191.7,71.7 191.7,68 198.2,68 198.2,66.7 191.7,66.7 191.7,59.8    199,59.8 199,58.5 190.1,58.5 190.1,73  "/>
	<path class="st1" d="M174.1,58.5h0.3V73h-1.4v-9.8c0-0.2,0-0.3,0-0.5c0-0.2,0-0.4,0-0.5c0-0.2,0-0.3,0-0.4c0-0.1,0-0.2,0-0.2   c0,0,0,0-0.1,0.1c-0.1,0.1-0.1,0.2-0.2,0.3c-0.1,0.1-0.2,0.3-0.3,0.4c-0.1,0.2-0.2,0.3-0.3,0.4L163.4,73h-0.3V58.5h1.4v9.8   c0,0.2,0,0.3,0,0.5c0,0.2,0,0.4,0,0.5c0,0.2,0,0.3,0,0.4c0,0.1,0,0.2,0,0.2c0,0,0,0,0.1-0.1c0.1-0.1,0.1-0.2,0.2-0.3   c0.1-0.1,0.2-0.3,0.3-0.4c0.1-0.2,0.2-0.3,0.3-0.4L174.1,58.5L174.1,58.5z"/>
	<path class="st1" d="M121.2,56.1H120v-3.4h1l4.9-12.8h0.4l5.2,12.8h1v3.4h-1.2V54h-10V56.1L121.2,56.1z M122.4,52.7h7.6l-3.9-9.9   L122.4,52.7L122.4,52.7z"/>
	<path class="st1" d="M111,52.9l-0.9,0.8c3,1.4,4.7-0.3,5.8-2.6l4.9-11h-1.6l-4.4,10.4L109.8,40h-1.5l5.5,11.7   C113.4,52.5,112.8,53.3,111,52.9L111,52.9z"/>
	<path class="st1" d="M134.9,54.1h1.4l0.9-2.3h6.9l0.9,2.3h1.5L140.7,40h-0.2L134.9,54.1L134.9,54.1z M137.7,50.5l2.4-6.2   c0.1-0.2,0.1-0.3,0.2-0.5c0.1-0.2,0.1-0.4,0.2-0.5c0-0.2,0.1-0.3,0.1-0.4c0-0.1,0-0.2,0-0.2c0,0,0,0.1,0,0.2c0,0.1,0.1,0.2,0.1,0.4   c0.1,0.2,0.1,0.4,0.2,0.5c0.1,0.2,0.1,0.4,0.2,0.5l2.4,6.2H137.7L137.7,50.5z"/>
	<path class="st1" d="M250.5,44.4c0.7,0.3,1.4,0.6,1.9,1.1c0.5,0.4,0.9,1,1.1,1.5c0.3,0.6,0.4,1.2,0.4,1.9c0,0.8-0.1,1.5-0.4,2.1   c-0.3,0.6-0.7,1.2-1.3,1.6c-0.6,0.5-1.3,0.8-2.1,1.1c-0.8,0.3-1.8,0.4-2.9,0.4h-3.6V40h1.7v3.7h1.9c0.3,0,0.6,0,0.9,0   c0.3,0,0.6,0.1,0.8,0.1C249.6,44,250.1,44.2,250.5,44.4L250.5,44.4z M245.3,45.1v7.7h1.8c0.9,0,1.7-0.1,2.3-0.3   c0.6-0.2,1.2-0.5,1.6-0.8c0.4-0.3,0.7-0.8,0.9-1.2c0.2-0.5,0.3-1,0.3-1.5c0-0.6-0.1-1.1-0.3-1.5c-0.2-0.5-0.5-0.9-0.9-1.2   c-0.4-0.3-0.9-0.6-1.6-0.8c-0.6-0.2-1.4-0.3-2.3-0.3H245.3L245.3,45.1z"/>
	<polygon class="st1" points="255.8,54.1 257.5,54.1 257.5,40 255.8,40 255.8,54.1  "/>
	<path class="st1" d="M83.4,54.1c0.8,0,1.5-0.1,2.2-0.3c0.7-0.2,1.4-0.5,1.9-1c0.6-0.4,1.1-0.9,1.5-1.5c0.4-0.6,0.8-1.2,1-1.9   c0.2-0.7,0.4-1.5,0.4-2.3c0-0.8-0.1-1.6-0.4-2.3c-0.2-0.7-0.6-1.4-1-1.9c-0.4-0.6-0.9-1.1-1.5-1.5c-0.6-0.4-1.2-0.7-1.9-1   c-0.7-0.2-1.5-0.3-2.2-0.3c-0.8,0-1.5,0.1-2.2,0.3c-0.7,0.2-1.4,0.5-1.9,1c-0.6,0.4-1.1,0.9-1.5,1.5c-0.4,0.6-0.8,1.2-1,1.9   c-0.2,0.7-0.4,1.5-0.4,2.3c0,0.8,0.1,1.6,0.4,2.3c0.2,0.7,0.6,1.4,1,1.9c0.4,0.6,0.9,1.1,1.5,1.5c0.6,0.4,1.2,0.7,1.9,1   C81.8,54,82.6,54.1,83.4,54.1L83.4,54.1z M83.4,52.8c-0.8,0-1.5-0.1-2.2-0.4c-0.7-0.3-1.3-0.7-1.8-1.2c-0.5-0.5-0.9-1.1-1.2-1.8   c-0.3-0.7-0.4-1.5-0.4-2.3c0-0.8,0.1-1.6,0.4-2.3c0.3-0.7,0.7-1.3,1.2-1.8c0.5-0.5,1.1-0.9,1.8-1.2c0.7-0.3,1.4-0.4,2.2-0.4   c0.8,0,1.6,0.1,2.2,0.4c0.7,0.3,1.3,0.7,1.8,1.2c0.5,0.5,0.9,1.1,1.2,1.8c0.3,0.7,0.4,1.5,0.4,2.3c0,0.8-0.1,1.6-0.4,2.3   c-0.3,0.7-0.7,1.3-1.2,1.8c-0.5,0.5-1.1,0.9-1.8,1.2C84.9,52.7,84.2,52.8,83.4,52.8L83.4,52.8z"/>
	<path class="st1" d="M100.9,54.1c0.9,0,1.7-0.1,2.4-0.3c0.7-0.2,1.4-0.5,2-1c0.6-0.4,1.1-0.9,1.5-1.5l-1.2-0.8   c-0.3,0.5-0.8,0.9-1.2,1.2c-0.5,0.3-1,0.6-1.6,0.8c-0.6,0.2-1.2,0.3-1.9,0.3c-0.8,0-1.6-0.1-2.3-0.4c-0.7-0.3-1.3-0.7-1.8-1.2   c-0.5-0.5-0.9-1.1-1.2-1.8c-0.3-0.7-0.4-1.5-0.4-2.3c0-0.8,0.1-1.6,0.4-2.3c0.3-0.7,0.7-1.3,1.2-1.8c0.5-0.5,1.1-0.9,1.8-1.2   c0.7-0.3,1.5-0.4,2.3-0.4c0.7,0,1.3,0.1,1.9,0.3c0.6,0.2,1.1,0.4,1.5,0.7c0.4,0.3,0.8,0.7,1.1,1.1l1.2-0.8c-0.6-0.9-1.4-1.5-2.4-2   c-1-0.4-2.1-0.7-3.4-0.7c-0.8,0-1.6,0.1-2.3,0.3c-0.7,0.2-1.4,0.5-2,1c-0.6,0.4-1.2,0.9-1.6,1.5c-0.5,0.6-0.8,1.2-1.1,1.9   c-0.3,0.7-0.4,1.5-0.4,2.3c0,0.8,0.1,1.6,0.4,2.3c0.2,0.7,0.6,1.4,1.1,1.9c0.4,0.6,1,1.1,1.6,1.5c0.6,0.4,1.3,0.7,2,1   C99.3,54,100.1,54.1,100.9,54.1L100.9,54.1z"/>
	<path class="st1" d="M149.2,54.1h1.5v-3.5h1.7c1,0,1.8-0.1,2.5-0.4c0.7-0.3,1.3-0.6,1.8-1.1c0.5-0.5,0.9-1,1.1-1.7   c0.2-0.6,0.4-1.4,0.4-2.1c0-0.8-0.1-1.5-0.4-2.2c-0.2-0.6-0.6-1.2-1.1-1.7c-0.5-0.5-1.1-0.8-1.8-1.1c-0.7-0.3-1.6-0.4-2.5-0.4h-3.2   V54.1L149.2,54.1z M150.7,49.3v-8h1.6c0.8,0,1.5,0.1,2,0.3c0.6,0.2,1,0.5,1.3,0.8c0.3,0.4,0.6,0.8,0.8,1.3c0.2,0.5,0.2,1,0.2,1.6   c0,0.6-0.1,1.1-0.2,1.6c-0.2,0.5-0.4,0.9-0.8,1.3c-0.3,0.4-0.8,0.6-1.3,0.8c-0.6,0.2-1.2,0.3-2,0.3H150.7L150.7,49.3z"/>
	<path class="st1" d="M168.1,54.1c0.9,0,1.7-0.1,2.4-0.3c0.7-0.2,1.4-0.5,2-1c0.6-0.4,1.1-0.9,1.5-1.5l-1.2-0.8   c-0.3,0.5-0.8,0.9-1.2,1.2c-0.5,0.3-1,0.6-1.6,0.8c-0.6,0.2-1.2,0.3-1.9,0.3c-0.8,0-1.6-0.1-2.3-0.4c-0.7-0.3-1.3-0.7-1.8-1.2   c-0.5-0.5-0.9-1.1-1.2-1.8c-0.3-0.7-0.4-1.5-0.4-2.3c0-0.8,0.1-1.6,0.4-2.3c0.3-0.7,0.7-1.3,1.2-1.8c0.5-0.5,1.1-0.9,1.8-1.2   c0.7-0.3,1.5-0.4,2.3-0.4c0.7,0,1.3,0.1,1.9,0.3c0.6,0.2,1.1,0.4,1.5,0.7c0.4,0.3,0.8,0.7,1.1,1.1l1.2-0.8c-0.6-0.9-1.4-1.5-2.4-2   c-1-0.4-2.1-0.7-3.4-0.7c-0.8,0-1.6,0.1-2.3,0.3c-0.7,0.2-1.4,0.5-2,0.9c-0.6,0.4-1.2,0.9-1.6,1.5c-0.5,0.6-0.8,1.2-1.1,1.9   c-0.3,0.7-0.4,1.5-0.4,2.3c0,0.8,0.1,1.6,0.4,2.3c0.2,0.7,0.6,1.4,1.1,1.9c0.4,0.6,1,1.1,1.6,1.5c0.6,0.4,1.3,0.7,2,0.9   C166.5,54,167.3,54.1,168.1,54.1L168.1,54.1z"/>
	<polygon class="st1" points="179.9,54.1 181.4,54.1 181.4,41.4 185.7,41.4 185.7,40 175.6,40 175.6,41.4 179.9,41.4 179.9,54.1     "/>
	<path class="st1" d="M188.8,54.1h5.3c0.7,0,1.4-0.1,2-0.3c0.6-0.2,1-0.5,1.4-0.9c0.4-0.4,0.6-0.8,0.8-1.3c0.2-0.5,0.3-1,0.3-1.6   c0-0.6-0.1-1.2-0.3-1.7c-0.2-0.5-0.6-0.9-1-1.3c-0.4-0.3-0.9-0.6-1.6-0.7c0.6-0.2,1.1-0.5,1.4-1c0.3-0.5,0.5-1.1,0.5-1.8   c0-0.5-0.1-0.9-0.2-1.3c-0.2-0.4-0.4-0.8-0.7-1.1c-0.3-0.3-0.7-0.6-1.2-0.7c-0.5-0.2-1.1-0.3-1.7-0.3h-4.8V54.1L188.8,54.1z    M190.3,45.8v-4.4h3.2c0.6,0,1.1,0.1,1.4,0.3c0.4,0.2,0.6,0.4,0.8,0.8c0.2,0.3,0.2,0.7,0.2,1.1c0,0.4-0.1,0.8-0.2,1.1   c-0.2,0.3-0.4,0.6-0.7,0.8c-0.3,0.2-0.8,0.3-1.3,0.3H190.3L190.3,45.8z M190.3,52.8v-5.7h3.6c0.7,0,1.3,0.1,1.8,0.4   c0.5,0.2,0.8,0.6,1,1c0.2,0.4,0.3,0.9,0.3,1.5c0,0.5-0.1,1-0.3,1.5c-0.2,0.4-0.5,0.8-1,1c-0.4,0.2-1,0.4-1.7,0.4H190.3L190.3,52.8z   "/>
	<polygon class="st1" points="201.7,54.1 210.8,54.1 210.8,52.8 203.2,52.8 203.2,49.3 209.7,49.3 209.7,48 203.2,48 203.2,41.4    210.5,41.4 210.5,40 201.7,40 201.7,54.1  "/>
	<polygon class="st1" points="214,54.1 215.6,54.1 215.6,49.4 223.3,49.4 223.3,54.1 224.9,54.1 224.9,40 223.3,40 223.3,48    215.6,48 215.6,40 214,40 214,54.1  "/>
	<polygon class="st1" points="228.8,54.1 230.4,54.1 230.4,49.4 238,49.4 238,54.1 239.6,54.1 239.6,40 238,40 238,48 230.4,48    230.4,40 228.8,40 228.8,54.1  "/>
	<path class="st0" d="M264.5,40h4.2C268,41.8,265.5,42,264.5,40L264.5,40z"/>
	<path class="st1" d="M261.6,54.1h-0.2V40h1.4v9.5c0,0.2,0,0.3,0,0.5c0,0.2,0,0.3,0,0.5c0,0.2,0,0.3,0,0.4c0,0.1,0,0.2,0,0.2   c0,0,0,0,0.1-0.1c0.1-0.1,0.1-0.2,0.2-0.3c0.1-0.1,0.2-0.3,0.3-0.4c0.1-0.1,0.2-0.3,0.3-0.4l8.3-9.8h0.2v14.1h-1.4v-9.4   c0-0.2,0-0.3,0-0.5c0-0.2,0-0.3,0-0.5c0-0.2,0-0.3,0-0.4c0-0.1,0-0.2,0-0.2c0,0,0,0-0.1,0.1c-0.1,0.1-0.1,0.2-0.2,0.3   c-0.1,0.1-0.2,0.3-0.3,0.4c-0.1,0.1-0.2,0.3-0.3,0.4L261.6,54.1L261.6,54.1z"/>
	<path class="st1" d="M64.9,54.1h1.5c0-4.2,0-8.5,0-12.7h7.3V40h-8.8V54.1L64.9,54.1z"/>
	<polygon class="st0" points="55.7,74.1 54.7,74.1 54.7,19.7 55.7,19.7 55.7,74.1  "/>
</g>
</svg>