<svg version="1.1"
	 id="svg2" xmlns:svg="http://www.w3.org/2000/svg" xmlns:dc="http://purl.org/dc/elements/1.1/" xmlns:rdf="http://www.w3.org/1999/02/22-rdf-syntax-ns#" xmlns:cc="http://creativecommons.org/ns#"
	 xmlns="http://www.w3.org/2000/svg" xmlns:xlink="http://www.w3.org/1999/xlink" x="0px" y="0px" viewBox="0 0 103.7 133.9"
	 style="enable-background:new 0 0 103.7 133.9;" xml:space="preserve">
<style type="text/css">
	.st0{fill:#33669988;}
</style>
<g id="g10" transform="matrix(1.3333333,0,0,-1.3333333,0,133.93333)">
	<g id="g12" transform="scale(0.1)">
		<path id="path14" class="st0" d="M358.9,196.9C203.5,211.9,82.1,342.8,82.1,502.1c0,154.1,113.6,281.6,261.6,303.4
			c-0.1,10.2,0.1,21,0.8,32.4c1.2,19.3,3.6,37,6.5,52.9l-18-39.2c-24.4-3.9-47.9-10.2-70.4-18.8l-35.5,25.2l-65.4-37.8l4.1-43.4
			c-18.9-15.3-36.1-32.6-51.5-51.4L71,729.4L33.2,664l25.1-35.3c-8.6-22.5-15.1-46.1-19-70.6L0,540v-0.4v-75.2v-0.4l39.2-18
			c3.9-24.4,10.3-47.9,18.8-70.4l-25.2-35.5l37.8-65.4l43.4,4.1c15.3-18.9,32.6-36.1,51.4-51.5l-4.1-43.3l65.4-37.8l35.3,25.1
			c22.6-8.7,46.3-15.1,70.9-19l18-39.2c3,16.6,5.5,35,6.8,54.9C358.5,178,358.8,187.6,358.9,196.9"/>
		<path id="path16" class="st0" d="M426.6,113.1l18,39.2c24.6,3.9,48.4,10.4,71,19.1l34.9-24.7l65.4,37.8l-4,42.7
			c19.1,15.5,36.5,32.9,51.9,52l42.8-4l37.8,65.4l-24.9,35.1c8.6,22.5,15,46.1,18.9,70.5l39.2,18v0.4v75.2v0.4l-39.3,18
			c-3.9,24.5-10.4,48.1-19,70.6l24.7,34.9L706.3,729l-42.7-4c-15.5,19.1-32.9,36.5-52,51.9l4,42.8l-65.4,37.8l-35.1-24.9
			c-22.5,8.6-46.1,15-70.5,18.9l-18,39.2c-2.2-14.6-4-30.1-5.3-46.6c-1-12.8-1.6-25.1-1.8-36.9c155-15.4,276.1-146.1,276.1-305.1
			c0-153.9-113.3-281.2-261-303.3c0.1-12-0.3-25-1.5-38.9C431.6,142.8,429.3,127.2,426.6,113.1"/>
		<path id="path18" class="st0" d="M358.1,607.8l57.2-56.5c-1.4,40.4-2.7,56.1-3.9,95h-55.3C356.8,625.7,357.4,629,358.1,607.8"/>
		<path id="path20" class="st0" d="M368.1,502.2l-7.4,7.8c0.4-11.2,0.8-3.1,1.2-14.3L368.1,502.2"/>
		<path id="path22" class="st0" d="M417.6,455.2l-53.5-52.8c0.8-23.1,1.5-21.8,2.1-44.5h55.3C420.4,397.9,419,414.4,417.6,455.2"/>
		<path id="path24" class="st0" d="M354.9,713.1h55.3c-0.4,17.9-0.8,25.9-1.1,43.1c-1.6,92.6,2.9,136.1,20,163.6
			c9.4,17.6,21.5,25.4,35.6,25.7c7,0.1,16.7-1.9,23.8-3.9l8.7,57.1c-8.8,3.1-22.1,6.1-34.3,5.9c-26.3-0.5-52.4-12.9-71.3-39.4
			c-30-41.9-39.6-93.4-37.7-203.4C353.9,742.8,354.4,733,354.9,713.1"/>
		<path id="path26" class="st0" d="M422.8,291.1h-55.3c0.5-20.2,0.9-30.3,1.3-49.8c1.8-101.3-6.5-133.9-20.9-160.3
			c-8.5-15.4-21.6-22.2-33.8-22.4c-7-0.1-16.7,1.9-23.8,3.9l-9.6-53.3c8-5.3,22.1-9.4,37.9-9.1c34.2,0.6,58.5,17.4,75.5,49.2
			c20.4,36.3,31.9,84.1,30,194.1C423.8,262.1,423.3,271.6,422.8,291.1"/>
		<path id="path28" class="st0" d="M450.4,502L294.5,348.1h151.1c7.7,0,28.6,1.6,35,4.2c6.8,2.7,11.9,6.1,17.3,11.5
			c5.8,5.8,10.6,11.4,14,19.1c3.5,7.9,9,22,9.3,30.8l30-0.2l-12.6-112.9H226.7v47.5L377.8,502L226.5,655.9v47.3h312l12.6-113.1h-30
			c-1.4,4.4-8.4,30.4-20.2,44.1c-11.8,13.8-25.4,17.5-35.1,19.5c-4.4,0.9-10.1,1.5-17,1.7c-7,0.3-14.1,0.4-21.4,0.4H294.5L450.4,502
			"/>
	</g>
</g>
</svg>
